<svg xmlns="http://www.w3.org/2000/svg" viewBox="0 0 79.5 137">
  <style>
    path{fill:#fff}@media (prefers-color-scheme:light){path{fill:#000}}
  </style>
  <path d="M79.5 96.3v-.2a18.4 18.4 0 0 0-.1-2.2v-.5l-.2-1-.2-1.1v-.5l-.3-1-.3-1.1-.4-1-.2-.5c0-.4-.2-.7-.4-1l-.4-1-.2-.4-23-31.9a.9.9 0 1 1 1.4-1l6.3 8.6v-.1l.2-.3.1-.2.2-.2.1-.3.1-.2.2-.3v-.2l.2-.2.2-.3V58l.2-.3.1-.2.2-.2.1-.3.1-.2.2-.3v-.2l.2-.2.2-.3v-.2l.2-.3.1-.2.2-.3.1-.2.1-.2.2-.3V54l.2-.3.2-.2v-.2l.2-.3.1-.2.2-.3.1-.2.1-.2.2-.3v-.2l.2-.3.1-.2.2-.2.1-.3.1-.2.2-.3.1-.2.1-.2.2-.3v-.2l.2-.3.1-.2.2-.2.1-.3.1-.2.2-.3.1-.2.1-.2.2-.3v-.2l.2-.3.1-.2.2-.2.1-.3.1-.2.2-.3.1-.2.1-.2.2-.3v-.2l.2-.3.1-.2.2-.2.1-.3.1-.2.2-.3.1-.2.1-.2.2-.3V42l.2-.3.1-.2.2-.2.1-.3.1-.2.2-.3.1-.2.1-.2.2-.3v-.2l.2-.3.1-.2.2-.2.1-.3.1-.2.2-.3a16 16 0 0 0 1.1-2.3l.4-1 .4-1.1.1-.5.3-1 .3-1v-.5l.2-1.1.2-1.1V28a13.5 13.5 0 0 0 .1-2.1v-1.8a19.6 19.6 0 0 0-.2-2.2l-.1-.4-.2-1-.2-1.1-.2-.4-.2-1-.4-1-.1-.5a16.6 16.6 0 0 0-.8-1.9l-.2-.4a13.6 13.6 0 0 0-1-1.8 7 7 0 0 0-.2-.4l-.6-.9-.2-.3-.6-.9-.7-.8-.3-.3L70 8l-.8-.7L69 7l-.7-.7-.8-.7-.3-.3-.9-.6-.8-.6-.9-.6-.4-.2-.9-.5-1-.5A5 5 0 0 0 62 2l-1-.5-1-.4-.4-.1-1-.3-1-.3-.5-.2-1-.2L55-.2l-1.1-.1h-.5l-1.1-.2h-1.6a19.6 19.6 0 0 0-2.3.1h-.5a21.1 21.1 0 0 0-2.2.4l-.4.1H45l-.3.1h-.2l-.3.1-.3.1c0 .1-.1 0-.2 0l-.3.1h-.2l-.3.1-.3.1c0 .1-.1 0-.2 0L42 1l-.3.1-.3.1c0 .1-.1 0-.2 0l-.3.1h-.2l-.3.1-.3.1c0 .1-.1 0-.2 0l-.3.1h-.2l-.3.1-.3.1c0 .1-.1 0-.2 0l-.3.1H38l-.3.1-.3.1c0 .1-.1 0-.2 0l-.3.1h-.2l-.3.1-.3.1c0 .1-.1 0-.2 0l-.3.1h-.2l-.3.1-.3.1c0 .1-.1 0-.2 0l-.3.1h-.2l-.3.1-.3.1c0 .1-.1 0-.2 0h-.5l-.3.1-.3.1c0 .1-.1 0-.2 0l-.3.1h-.2l-.3.1-.3.1c0 .1-.1 0-.2 0l-.3.1h-.2l-.3.1-.3.1h-.2L29 4l-.3.1-.3.1h-.2l-.3.1h-.2l-.3.1-.3.1c0 .1-.1 0-.2 0l-.3.1h-.2l-.3.1-.3.1-1 .2-1 .3-.5.2c-.4 0-.7.2-1 .3l-1 .4-.4.2-1 .4-1 .5-.9.6-.4.2-.9.6-.8.6-.4.2-.8.7-.8.7-.4.3a26.2 26.2 0 0 0-2.2 2.3l-.2.3-.7.8-.6.9-.3.4-.5.9-.6.9-.2.4-.4 1-.5.9-.2.4-.3 1-.4 1-.3 1v.5a2 2 0 0 0-.3 1L5.5 26v.5c-.2.3-.2.7-.2 1A20.7 20.7 0 0 0 5 30v41.8c5-4 11.6-5.3 17.7-3.2-1.2-7.5 0-15.3 3.6-22.1l16.2-29c.2-.4.8-.5 1.2-.2.4.2.5.7.3 1L28 47.4c-3.4 6.5-4.6 14-3.5 21.2l34 17.1c.4.2.6.8.4 1.2-.1.5-.7.7-1.1.5h-.2l-33.4-16-.9-.5a16.4 16.4 0 1 0-13.2 30l39.3 21h.7a21 21 0 0 0 2.7.3H54a17.5 17.5 0 0 0 2.2 0h.4l1.1-.2 1.1-.2.5-.1 1-.3a2 2 0 0 0 1-.3h.5l1-.4 1-.4 1-.5.3-.1a16.6 16.6 0 0 0 1.9-1l.4-.3a16.5 16.5 0 0 0 1.7-1.1l.3-.3a25.7 25.7 0 0 0 1.7-1.3l.3-.3a12.7 12.7 0 0 0 1.4-1.5l.3-.3.7-.7.3-.4.6-.8.6-.8.2-.4.6-.9.5-.9.2-.3.5-1 .4-1 .2-.3a11.7 11.7 0 0 0 .7-2l.2-.4.2-1 .3-1v-.5a19.6 19.6 0 0 0 .4-2.1v-.4a13.2 13.2 0 0 0 .2-2.2V96"/>
  <path d="M4.8 101v18a18.2 18.2 0 0 0 36.2 1L4.8 101v.1"/>
</svg>
