<svg width="95" height="30" viewBox="0 0 95 30" fill="none" xmlns="http://www.w3.org/2000/svg">
<path fill-rule="evenodd" clip-rule="evenodd" d="M18.2055 14.1468C19.2131 14.3017 20.1428 14.7073 20.9945 15.1898V15.1908C22.0385 15.7825 22.8694 16.5999 23.4882 17.6439C24.1069 18.688 24.4158 19.9078 24.4158 21.3044C24.4158 22.9266 23.9977 24.3731 23.1596 25.6428C22.3214 26.9125 21.1245 27.9098 19.5688 28.6346C18.0121 29.3594 16.1579 29.7213 14.0033 29.7213H1.2198C0.545946 29.7213 0 29.1754 0 28.5015V1.2198C0 0.545946 0.545946 0 1.2198 0H12.8854C15.1461 0 17.0481 0.30573 18.5913 0.918229C20.1345 1.52969 21.2971 2.39072 22.0822 3.50133C22.8673 4.61195 23.2594 5.91806 23.2594 7.42071C23.2594 8.51052 23.0192 9.50882 22.5408 10.4125C22.0614 11.3172 21.3938 12.0711 20.5359 12.6763C19.8485 13.1609 19.0665 13.6268 18.1878 13.9086C18.063 13.9481 18.0765 14.127 18.2055 14.1468ZM4.36237 20.9997C4.80849 24.4636 7.7254 27.0592 11.2059 26.7597C14.6865 26.4602 17.2654 23.3967 16.9659 19.9161C16.7063 16.8991 15.0449 15.7277 12.7715 14.1247C12.4222 13.8784 12.0585 13.622 11.6832 13.3471C5.90662 9.11678 6.33817 13.1474 6.5212 14.6813C6.57191 15.108 6.08386 15.1555 5.54491 15.208C5.04498 15.2566 4.50126 15.3095 4.3031 15.6733C3.74045 16.7074 3.93956 18.0651 4.19403 19.8001C4.24997 20.1815 4.30858 20.5812 4.36237 20.9997ZM67.9791 7.22C67.9823 7.22104 67.9895 7.22208 67.9895 7.22208V7.22C68.5594 7.30943 68.9764 7.80754 68.9764 8.38468V14.4036C68.9764 15.1118 68.3556 15.6525 67.6526 15.5693L67.5102 15.5537C66.932 15.4945 66.4359 15.4643 66.0241 15.4643C65.2401 15.4643 64.535 15.64 63.91 15.9926C63.285 16.3451 62.7963 16.837 62.4438 17.4682C62.0912 18.1004 61.9155 18.8419 61.9155 19.6925V28.5379C61.9155 29.1899 61.3872 29.7182 60.7352 29.7182H55.0782C54.4262 29.7182 53.8979 29.1899 53.8979 28.5379V8.5989C53.8979 7.94689 54.4262 7.41862 55.0782 7.41862H60.496C61.1481 7.41862 61.6763 7.94689 61.6763 8.5989V11.6874H61.9155C62.3148 10.1047 62.9554 8.95143 63.8404 8.22662C64.7253 7.50285 65.759 7.13993 66.9424 7.13993C67.2876 7.13993 67.6329 7.16696 67.9791 7.22ZM90.4087 8.21831C91.5723 8.93584 92.4729 9.92686 93.1114 11.1903L93.1135 11.1893C93.752 12.4528 94.0712 13.8951 94.0712 15.5173V28.5005C94.0712 29.1743 93.5253 29.7203 92.8514 29.7203H87.2713C86.5975 29.7203 86.0515 29.1743 86.0515 28.5005V18.1972C86.0515 17.0938 85.7718 16.2255 85.2134 15.5943C84.6549 14.9631 83.8709 14.647 82.8601 14.647C82.2081 14.647 81.6403 14.7894 81.1546 15.0754C80.669 15.3614 80.2936 15.7669 80.0274 16.2921C79.7612 16.8172 79.6281 17.4526 79.6281 18.1972V28.5005C79.6281 29.1743 79.0821 29.7203 78.4083 29.7203H72.8282C72.1543 29.7203 71.6084 29.1743 71.6084 28.5005V8.63947C71.6084 7.96561 72.1543 7.41967 72.8282 7.41967H77.9424C78.6027 7.41967 79.1424 7.94482 79.1612 8.60515L79.2693 12.4601C79.7809 11.0603 80.5276 9.86239 81.5124 8.86617C82.649 7.71604 84.2421 7.14097 86.2897 7.14097C87.8724 7.14097 89.245 7.49974 90.4087 8.21831ZM48.6069 7.41968H43.0278C42.354 7.41968 41.808 7.96562 41.808 8.63948V18.7098C41.808 19.4284 41.6718 20.0492 41.3994 20.5744C41.1269 21.0995 40.7515 21.5051 40.2721 21.7911C39.7938 22.077 39.2416 22.2195 38.6166 22.2195C37.9916 22.2195 37.4561 22.077 36.9715 21.7911C36.4858 21.5051 36.1073 21.0995 35.8349 20.5744C35.5624 20.0492 35.4262 19.4274 35.4262 18.7098V8.63948C35.4262 7.96562 34.8802 7.41968 34.2064 7.41968H28.6263C27.9525 7.41968 27.4065 7.96562 27.4065 8.63948V20.5453C27.4065 22.4732 27.8682 24.1454 28.7927 25.5617C29.7172 26.9781 31.017 28.072 32.6923 28.8426C34.3676 29.6142 36.3361 30 38.5968 30C40.8576 30 42.849 29.6142 44.5305 28.8426C46.2131 28.072 47.516 26.9781 48.4405 25.5617C49.365 24.1454 49.8267 22.4732 49.8267 20.5453V8.63948C49.8267 7.96562 49.2808 7.41968 48.6069 7.41968Z" fill="white"/>
</svg>
