<?xml version="1.0" encoding="UTF-8"?>
<svg xmlns="http://www.w3.org/2000/svg" xmlns:xlink="http://www.w3.org/1999/xlink" version="1.1" width="648px" height="303px" viewBox="-0.5 -0.5 648 303" style="background-color: rgb(255, 255, 255);">
  <defs></defs>
  <g>
    <rect x="47" y="221" width="120" height="60" fill="rgb(255, 255, 255)" stroke="rgb(0, 0, 0)"></rect>
    <g transform="translate(-0.5 -0.5)">
      <switch>
        <text x="107" y="255" fill="rgb(0, 0, 0)" font-family="Helvetica" font-size="12px" text-anchor="middle">Compute Client</text>
      </switch>
    </g>
    <rect x="367" y="221" width="120" height="60" rx="9" ry="9" fill="rgb(255, 255, 255)" stroke="rgb(0, 0, 0)"></rect>
    <g transform="translate(-0.5 -0.5)">
      <switch>
        <text x="427" y="255" fill="rgb(0, 0, 0)" font-family="Helvetica" font-size="12px" text-anchor="middle">Compute Server</text>
      </switch>
    </g>
    <rect x="367" y="121" width="120" height="60" rx="9" ry="9" fill="rgb(255, 255, 255)" stroke="rgb(0, 0, 0)"></rect>
    <g transform="translate(-0.5 -0.5)">
      <switch>
        <text x="427" y="155" fill="rgb(0, 0, 0)" font-family="Helvetica" font-size="12px" text-anchor="middle">Memory Management</text>
      </switch>
    </g>
    <rect x="527" y="121" width="120" height="60" rx="9" ry="9" fill="rgb(255, 255, 255)" stroke="rgb(0, 0, 0)"></rect>
    <g transform="translate(-0.5 -0.5)">
      <switch>
        <text x="587" y="155" fill="rgb(0, 0, 0)" font-family="Helvetica" font-size="12px" text-anchor="middle">Storage</text>
      </switch>
    </g>
    <rect x="47" y="121" width="120" height="60" fill="rgb(255, 255, 255)" stroke="rgb(0, 0, 0)"></rect>
    <g transform="translate(-0.5 -0.5)">
      <switch>
        <text x="107" y="155" fill="rgb(0, 0, 0)" font-family="Helvetica" font-size="12px" text-anchor="middle">Tuner</text>
      </switch>
    </g>
    <path d="M 107 221 L 107 187.37" fill="none" stroke="rgb(0, 0, 0)" stroke-miterlimit="10"></path>
    <path d="M 107 182.12 L 110.5 189.12 L 107 187.37 L 103.5 189.12 Z" fill="rgb(0, 0, 0)" stroke="rgb(0, 0, 0)" stroke-miterlimit="10"></path>
    <path d="M 167 251 L 200.63 251" fill="none" stroke="rgb(0, 0, 0)" stroke-miterlimit="10"></path>
    <path d="M 205.88 251 L 198.88 254.5 L 200.63 251 L 198.88 247.5 Z" fill="rgb(0, 0, 0)" stroke="rgb(0, 0, 0)" stroke-miterlimit="10"></path>
    <path d="M 327 251 L 360.63 251" fill="none" stroke="rgb(0, 0, 0)" stroke-miterlimit="10"></path>
    <path d="M 365.88 251 L 358.88 254.5 L 360.63 251 L 358.88 247.5 Z" fill="rgb(0, 0, 0)" stroke="rgb(0, 0, 0)" stroke-miterlimit="10"></path>
    <path d="M 427 221 L 427 187.37" fill="none" stroke="rgb(0, 0, 0)" stroke-miterlimit="10"></path>
    <path d="M 427 182.12 L 430.5 189.12 L 427 187.37 L 423.5 189.12 Z" fill="rgb(0, 0, 0)" stroke="rgb(0, 0, 0)" stroke-miterlimit="10"></path>
    <path d="M 487 151 L 520.63 151" fill="none" stroke="rgb(0, 0, 0)" stroke-miterlimit="10"></path>
    <path d="M 525.88 151 L 518.88 154.5 L 520.63 151 L 518.88 147.5 Z" fill="rgb(0, 0, 0)" stroke="rgb(0, 0, 0)" stroke-miterlimit="10"></path>
    <path d="M 266.5 301 L 266.5 1" fill="none" stroke="rgb(0, 0, 0)" stroke-width="2" stroke-miterlimit="10" stroke-dasharray="2 6"></path>
    <rect x="207" y="221" width="120" height="60" rx="9" ry="9" fill="rgb(255, 255, 255)" stroke="rgb(0, 0, 0)"></rect>
    <g transform="translate(-0.5 -0.5)">
      <switch>
        <text x="267" y="255" fill="rgb(0, 0, 0)" font-family="Helvetica" font-size="12px" text-anchor="middle">Compute Channel</text>
      </switch>
    </g>
    <rect x="197" y="41" width="60" height="30" fill="none" stroke="none"></rect>
    <g transform="translate(-0.5 -0.5)">
      <switch>
        <text x="227" y="60" fill="rgb(0, 0, 0)" font-family="Helvetica" font-size="12px" text-anchor="middle">Client-side</text>
      </switch>
    </g>
    <rect x="267" y="41" width="85" height="30" fill="none" stroke="none"></rect>
    <g transform="translate(-0.5 -0.5)">
      <switch>
        <text x="310" y="60" fill="rgb(0, 0, 0)" font-family="Helvetica" font-size="12px" text-anchor="middle">Server-side</text>
      </switch>
    </g>
    <path d="M 7 251 L 40.63 251" fill="none" stroke="rgb(0, 0, 0)" stroke-miterlimit="10"></path>
    <path d="M 45.88 251 L 38.88 254.5 L 40.63 251 L 38.88 247.5 Z" fill="rgb(0, 0, 0)" stroke="rgb(0, 0, 0)" stroke-miterlimit="10"></path>
    <path d="M 427 81 L 427 114.63" fill="none" stroke="rgb(0, 0, 0)" stroke-miterlimit="10" stroke-dasharray="3 3"></path>
    <path d="M 427 119.88 L 423.5 112.88 L 427 114.63 L 430.5 112.88 Z" fill="rgb(0, 0, 0)" stroke="rgb(0, 0, 0)" stroke-miterlimit="10"></path>
    <rect x="367" y="21" width="120" height="60" fill="rgb(255, 255, 255)" stroke="rgb(0, 0, 0)"></rect>
    <g transform="translate(-0.5 -0.5)">
      <switch>
        <text x="427" y="55" fill="rgb(0, 0, 0)" font-family="Helvetica" font-size="12px" text-anchor="middle">Simple Memory Manage...</text>
      </switch>
    </g>
  </g>
  <switch>
    <g></g>
    <a transform="translate(0,-5)" xlink:href="https://www.drawio.com/doc/faq/svg-export-text-problems">
      <text text-anchor="middle" font-size="10px" x="50%" y="100%">Text is not SVG - cannot display</text>
    </a>
  </switch>
</svg>
