<?xml version="1.0" encoding="UTF-8"?>
<svg xmlns="http://www.w3.org/2000/svg" xmlns:xlink="http://www.w3.org/1999/xlink" version="1.1" width="541px" height="296px" viewBox="-0.5 -0.5 541 296" style="background-color: rgb(255, 255, 255);">
  <defs></defs>
  <g>
    <path d="M 225 5 Q 245 5 230 15 Q 215 25 225 30 Q 235 35 235 48.63" fill="none" stroke="rgb(0, 0, 0)" stroke-miterlimit="10"></path>
    <path d="M 235 53.88 L 231.5 46.88 L 235 48.63 L 238.5 46.88 Z" fill="rgb(0, 0, 0)" stroke="rgb(0, 0, 0)" stroke-miterlimit="10"></path>
    <rect x="260" y="15" width="60" height="30" fill="none" stroke="none"></rect>
    <g transform="translate(-0.5 -0.5)">
      <switch>
        <text x="290" y="34" fill="rgb(0, 0, 0)" font-family="Helvetica" font-size="12px" text-anchor="middle" font-weight="bold">Invocation...</text>
      </switch>
    </g>
    <rect x="140" y="70" width="110" height="60" fill="#e1d5e7" stroke="#9673a6"></rect>
    <path d="M 170 75 Q 190 75 175 85 Q 160 95 170 100 Q 180 105 180 118.63" fill="none" stroke="rgb(0, 0, 0)" stroke-miterlimit="10"></path>
    <path d="M 180 123.88 L 176.5 116.88 L 180 118.63 L 183.5 116.88 Z" fill="rgb(0, 0, 0)" stroke="rgb(0, 0, 0)" stroke-miterlimit="10"></path>
    <path d="M 190 75 Q 210 75 195 85 Q 180 95 190 100 Q 200 105 200 118.63" fill="none" stroke="rgb(0, 0, 0)" stroke-miterlimit="10"></path>
    <path d="M 200 123.88 L 196.5 116.88 L 200 118.63 L 203.5 116.88 Z" fill="rgb(0, 0, 0)" stroke="rgb(0, 0, 0)" stroke-miterlimit="10"></path>
    <path d="M 210 75 Q 230 75 215 85 Q 200 95 210 100 Q 220 105 220 118.63" fill="none" stroke="rgb(0, 0, 0)" stroke-miterlimit="10"></path>
    <path d="M 220 123.88 L 216.5 116.88 L 220 118.63 L 223.5 116.88 Z" fill="rgb(0, 0, 0)" stroke="rgb(0, 0, 0)" stroke-miterlimit="10"></path>
    <path d="M 150 75 Q 170 75 155 85 Q 140 95 150 100 Q 160 105 160 118.63" fill="none" stroke="rgb(0, 0, 0)" stroke-miterlimit="10"></path>
    <path d="M 160 123.88 L 156.5 116.88 L 160 118.63 L 163.5 116.88 Z" fill="rgb(0, 0, 0)" stroke="rgb(0, 0, 0)" stroke-miterlimit="10"></path>
    <path d="M 230 75 Q 250 75 235 85 Q 220 95 230 100 Q 240 105 240 118.63" fill="none" stroke="rgb(0, 0, 0)" stroke-miterlimit="10"></path>
    <path d="M 240 123.88 L 236.5 116.88 L 240 118.63 L 243.5 116.88 Z" fill="rgb(0, 0, 0)" stroke="rgb(0, 0, 0)" stroke-miterlimit="10"></path>
    <rect x="260" y="85" width="60" height="30" fill="none" stroke="none"></rect>
    <g transform="translate(-0.5 -0.5)">
      <switch>
        <text x="290" y="104" fill="rgb(0, 0, 0)" font-family="Helvetica" font-size="12px" text-anchor="middle" font-weight="bold">Workgroup</text>
      </switch>
    </g>
    <rect x="0" y="145" width="250" height="150" fill="#d5e8d4" stroke="#82b366"></rect>
    <rect x="10" y="155" width="110" height="60" fill="#e1d5e7" stroke="#9673a6"></rect>
    <path d="M 40 160 Q 60 160 45 170 Q 30 180 40 185 Q 50 190 50 203.63" fill="none" stroke="rgb(0, 0, 0)" stroke-miterlimit="10"></path>
    <path d="M 50 208.88 L 46.5 201.88 L 50 203.63 L 53.5 201.88 Z" fill="rgb(0, 0, 0)" stroke="rgb(0, 0, 0)" stroke-miterlimit="10"></path>
    <path d="M 60 160 Q 80 160 65 170 Q 50 180 60 185 Q 70 190 70 203.63" fill="none" stroke="rgb(0, 0, 0)" stroke-miterlimit="10"></path>
    <path d="M 70 208.88 L 66.5 201.88 L 70 203.63 L 73.5 201.88 Z" fill="rgb(0, 0, 0)" stroke="rgb(0, 0, 0)" stroke-miterlimit="10"></path>
    <path d="M 80 160 Q 100 160 85 170 Q 70 180 80 185 Q 90 190 90 203.63" fill="none" stroke="rgb(0, 0, 0)" stroke-miterlimit="10"></path>
    <path d="M 90 208.88 L 86.5 201.88 L 90 203.63 L 93.5 201.88 Z" fill="rgb(0, 0, 0)" stroke="rgb(0, 0, 0)" stroke-miterlimit="10"></path>
    <path d="M 20 160 Q 40 160 25 170 Q 10 180 20 185 Q 30 190 30 203.63" fill="none" stroke="rgb(0, 0, 0)" stroke-miterlimit="10"></path>
    <path d="M 30 208.88 L 26.5 201.88 L 30 203.63 L 33.5 201.88 Z" fill="rgb(0, 0, 0)" stroke="rgb(0, 0, 0)" stroke-miterlimit="10"></path>
    <path d="M 100 160 Q 120 160 105 170 Q 90 180 100 185 Q 110 190 110 203.63" fill="none" stroke="rgb(0, 0, 0)" stroke-miterlimit="10"></path>
    <path d="M 110 208.88 L 106.5 201.88 L 110 203.63 L 113.5 201.88 Z" fill="rgb(0, 0, 0)" stroke="rgb(0, 0, 0)" stroke-miterlimit="10"></path>
    <rect x="130" y="155" width="110" height="60" fill="#e1d5e7" stroke="#9673a6"></rect>
    <path d="M 160 160 Q 180 160 165 170 Q 150 180 160 185 Q 170 190 170 203.63" fill="none" stroke="rgb(0, 0, 0)" stroke-miterlimit="10"></path>
    <path d="M 170 208.88 L 166.5 201.88 L 170 203.63 L 173.5 201.88 Z" fill="rgb(0, 0, 0)" stroke="rgb(0, 0, 0)" stroke-miterlimit="10"></path>
    <path d="M 180 160 Q 200 160 185 170 Q 170 180 180 185 Q 190 190 190 203.63" fill="none" stroke="rgb(0, 0, 0)" stroke-miterlimit="10"></path>
    <path d="M 190 208.88 L 186.5 201.88 L 190 203.63 L 193.5 201.88 Z" fill="rgb(0, 0, 0)" stroke="rgb(0, 0, 0)" stroke-miterlimit="10"></path>
    <path d="M 200 160 Q 220 160 205 170 Q 190 180 200 185 Q 210 190 210 203.63" fill="none" stroke="rgb(0, 0, 0)" stroke-miterlimit="10"></path>
    <path d="M 210 208.88 L 206.5 201.88 L 210 203.63 L 213.5 201.88 Z" fill="rgb(0, 0, 0)" stroke="rgb(0, 0, 0)" stroke-miterlimit="10"></path>
    <path d="M 140 160 Q 160 160 145 170 Q 130 180 140 185 Q 150 190 150 203.63" fill="none" stroke="rgb(0, 0, 0)" stroke-miterlimit="10"></path>
    <path d="M 150 208.88 L 146.5 201.88 L 150 203.63 L 153.5 201.88 Z" fill="rgb(0, 0, 0)" stroke="rgb(0, 0, 0)" stroke-miterlimit="10"></path>
    <path d="M 220 160 Q 240 160 225 170 Q 210 180 220 185 Q 230 190 230 203.63" fill="none" stroke="rgb(0, 0, 0)" stroke-miterlimit="10"></path>
    <path d="M 230 208.88 L 226.5 201.88 L 230 203.63 L 233.5 201.88 Z" fill="rgb(0, 0, 0)" stroke="rgb(0, 0, 0)" stroke-miterlimit="10"></path>
    <rect x="10" y="225" width="110" height="60" fill="#e1d5e7" stroke="#9673a6"></rect>
    <path d="M 40 230 Q 60 230 45 240 Q 30 250 40 255 Q 50 260 50 273.63" fill="none" stroke="rgb(0, 0, 0)" stroke-miterlimit="10"></path>
    <path d="M 50 278.88 L 46.5 271.88 L 50 273.63 L 53.5 271.88 Z" fill="rgb(0, 0, 0)" stroke="rgb(0, 0, 0)" stroke-miterlimit="10"></path>
    <path d="M 60 230 Q 80 230 65 240 Q 50 250 60 255 Q 70 260 70 273.63" fill="none" stroke="rgb(0, 0, 0)" stroke-miterlimit="10"></path>
    <path d="M 70 278.88 L 66.5 271.88 L 70 273.63 L 73.5 271.88 Z" fill="rgb(0, 0, 0)" stroke="rgb(0, 0, 0)" stroke-miterlimit="10"></path>
    <path d="M 80 230 Q 100 230 85 240 Q 70 250 80 255 Q 90 260 90 273.63" fill="none" stroke="rgb(0, 0, 0)" stroke-miterlimit="10"></path>
    <path d="M 90 278.88 L 86.5 271.88 L 90 273.63 L 93.5 271.88 Z" fill="rgb(0, 0, 0)" stroke="rgb(0, 0, 0)" stroke-miterlimit="10"></path>
    <path d="M 20 230 Q 40 230 25 240 Q 10 250 20 255 Q 30 260 30 273.63" fill="none" stroke="rgb(0, 0, 0)" stroke-miterlimit="10"></path>
    <path d="M 30 278.88 L 26.5 271.88 L 30 273.63 L 33.5 271.88 Z" fill="rgb(0, 0, 0)" stroke="rgb(0, 0, 0)" stroke-miterlimit="10"></path>
    <path d="M 100 230 Q 120 230 105 240 Q 90 250 100 255 Q 110 260 110 273.63" fill="none" stroke="rgb(0, 0, 0)" stroke-miterlimit="10"></path>
    <path d="M 110 278.88 L 106.5 271.88 L 110 273.63 L 113.5 271.88 Z" fill="rgb(0, 0, 0)" stroke="rgb(0, 0, 0)" stroke-miterlimit="10"></path>
    <rect x="130" y="225" width="110" height="60" fill="#e1d5e7" stroke="#9673a6"></rect>
    <path d="M 160 230 Q 180 230 165 240 Q 150 250 160 255 Q 170 260 170 273.63" fill="none" stroke="rgb(0, 0, 0)" stroke-miterlimit="10"></path>
    <path d="M 170 278.88 L 166.5 271.88 L 170 273.63 L 173.5 271.88 Z" fill="rgb(0, 0, 0)" stroke="rgb(0, 0, 0)" stroke-miterlimit="10"></path>
    <path d="M 180 230 Q 200 230 185 240 Q 170 250 180 255 Q 190 260 190 273.63" fill="none" stroke="rgb(0, 0, 0)" stroke-miterlimit="10"></path>
    <path d="M 190 278.88 L 186.5 271.88 L 190 273.63 L 193.5 271.88 Z" fill="rgb(0, 0, 0)" stroke="rgb(0, 0, 0)" stroke-miterlimit="10"></path>
    <path d="M 200 230 Q 220 230 205 240 Q 190 250 200 255 Q 210 260 210 273.63" fill="none" stroke="rgb(0, 0, 0)" stroke-miterlimit="10"></path>
    <path d="M 210 278.88 L 206.5 271.88 L 210 273.63 L 213.5 271.88 Z" fill="rgb(0, 0, 0)" stroke="rgb(0, 0, 0)" stroke-miterlimit="10"></path>
    <path d="M 140 230 Q 160 230 145 240 Q 130 250 140 255 Q 150 260 150 273.63" fill="none" stroke="rgb(0, 0, 0)" stroke-miterlimit="10"></path>
    <path d="M 150 278.88 L 146.5 271.88 L 150 273.63 L 153.5 271.88 Z" fill="rgb(0, 0, 0)" stroke="rgb(0, 0, 0)" stroke-miterlimit="10"></path>
    <path d="M 220 230 Q 240 230 225 240 Q 210 250 220 255 Q 230 260 230 273.63" fill="none" stroke="rgb(0, 0, 0)" stroke-miterlimit="10"></path>
    <path d="M 230 278.88 L 226.5 271.88 L 230 273.63 L 233.5 271.88 Z" fill="rgb(0, 0, 0)" stroke="rgb(0, 0, 0)" stroke-miterlimit="10"></path>
    <rect x="260" y="175" width="60" height="90" fill="none" stroke="none"></rect>
    <g transform="translate(-0.5 -0.5)">
      <switch>
        <text x="290" y="224" fill="rgb(0, 0, 0)" font-family="Helvetica" font-size="12px" text-anchor="middle" font-weight="bold">Grid</text>
      </switch>
    </g>
    <rect x="420" y="0" width="120" height="60" fill="#f5f5f5" stroke="#666666"></rect>
    <g transform="translate(-0.5 -0.5)">
      <switch>
        <text x="480" y="34" fill="#333333" font-family="Helvetica" font-size="12px" text-anchor="middle">Local Memory</text>
      </switch>
    </g>
    <rect x="420" y="70" width="120" height="65" fill="#e1d5e7" stroke="#9673a6"></rect>
    <g transform="translate(-0.5 -0.5)">
      <switch>
        <text x="480" y="106" fill="rgb(0, 0, 0)" font-family="Helvetica" font-size="12px" text-anchor="middle">Shared Memory</text>
      </switch>
    </g>
    <rect x="420" y="145" width="120" height="150" fill="#d5e8d4" stroke="#82b366"></rect>
    <g transform="translate(-0.5 -0.5)">
      <switch>
        <text x="480" y="224" fill="rgb(0, 0, 0)" font-family="Helvetica" font-size="12px" text-anchor="middle">Global Memory</text>
      </switch>
    </g>
    <path d="M 336.37 29.5 L 403.63 29.5" fill="none" stroke="rgb(0, 0, 0)" stroke-miterlimit="10"></path>
    <path d="M 331.12 29.5 L 338.12 26 L 336.37 29.5 L 338.12 33 Z" fill="rgb(0, 0, 0)" stroke="rgb(0, 0, 0)" stroke-miterlimit="10"></path>
    <path d="M 408.88 29.5 L 401.88 33 L 403.63 29.5 L 401.88 26 Z" fill="rgb(0, 0, 0)" stroke="rgb(0, 0, 0)" stroke-miterlimit="10"></path>
    <path d="M 336.37 99.5 L 403.63 99.5" fill="none" stroke="rgb(0, 0, 0)" stroke-miterlimit="10"></path>
    <path d="M 331.12 99.5 L 338.12 96 L 336.37 99.5 L 338.12 103 Z" fill="rgb(0, 0, 0)" stroke="rgb(0, 0, 0)" stroke-miterlimit="10"></path>
    <path d="M 408.88 99.5 L 401.88 103 L 403.63 99.5 L 401.88 96 Z" fill="rgb(0, 0, 0)" stroke="rgb(0, 0, 0)" stroke-miterlimit="10"></path>
    <path d="M 336.37 219.5 L 403.63 219.5" fill="none" stroke="rgb(0, 0, 0)" stroke-miterlimit="10"></path>
    <path d="M 331.12 219.5 L 338.12 216 L 336.37 219.5 L 338.12 223 Z" fill="rgb(0, 0, 0)" stroke="rgb(0, 0, 0)" stroke-miterlimit="10"></path>
    <path d="M 408.88 219.5 L 401.88 223 L 403.63 219.5 L 401.88 216 Z" fill="rgb(0, 0, 0)" stroke="rgb(0, 0, 0)" stroke-miterlimit="10"></path>
  </g>
  <switch>
    <g></g>
    <a transform="translate(0,-5)" xlink:href="https://www.drawio.com/doc/faq/svg-export-text-problems">
      <text text-anchor="middle" font-size="10px" x="50%" y="100%">Text is not SVG - cannot display</text>
    </a>
  </switch>
</svg>
