<?xml version="1.0" encoding="UTF-8"?>
<svg xmlns="http://www.w3.org/2000/svg" xmlns:xlink="http://www.w3.org/1999/xlink" version="1.1" width="242px" height="132px" viewBox="-0.5 -0.5 242 132" style="background-color: rgb(255, 255, 255);">
  <defs></defs>
  <g>
    <path d="M 121 1 L 241 58.62 L 241 73.38 L 121 131 L 1 73.38 L 1 58.62 Z" fill="#b3ff66" stroke="rgb(0, 0, 0)" stroke-width="2" stroke-miterlimit="10"></path>
    <path d="M 1 58.62 L 121 116.24 L 241 58.62 M 121 116.24 L 121 131" fill="none" stroke="rgb(0, 0, 0)" stroke-width="2" stroke-miterlimit="10"></path>
    <path d="M 55.48 84.85 L 171.64 25.31" fill="none" stroke="rgb(0, 0, 0)" stroke-width="2" stroke-miterlimit="10"></path>
    <path d="M 56.44 100.19 L 56.44 85.37" fill="none" stroke="rgb(0, 0, 0)" stroke-width="2" stroke-miterlimit="10"></path>
    <path d="M 111.16 111.37 L 229.48 53.13" fill="none" stroke="rgb(0, 0, 0)" stroke-width="2" stroke-miterlimit="10"></path>
    <path d="M 110.68 126.06 L 111 111" fill="none" stroke="rgb(0, 0, 0)" stroke-width="2" stroke-miterlimit="10"></path>
    <path d="M 36.28 42.86 L 159.64 97.85" fill="none" stroke="rgb(0, 0, 0)" stroke-width="2" stroke-miterlimit="10"></path>
    <path d="M 81 21 L 205.24 77.31" fill="none" stroke="rgb(0, 0, 0)" stroke-width="2" stroke-miterlimit="10"></path>
    <path d="M 203.8 90.83 L 203.8 76.14" fill="none" stroke="rgb(0, 0, 0)" stroke-width="2" stroke-miterlimit="10"></path>
    <path d="M 159.4 112.02 L 159.4 97.85" fill="none" stroke="rgb(0, 0, 0)" stroke-width="2" stroke-miterlimit="10"></path>
    <path d="M 71 91 L 181.96 32.33" fill="none" stroke="rgb(0, 0, 0)" stroke-width="2" stroke-miterlimit="10" stroke-dasharray="6 6"></path>
    <path d="M 86.68 97.85 L 197.32 39.09" fill="none" stroke="rgb(0, 0, 0)" stroke-width="2" stroke-miterlimit="10" stroke-dasharray="6 6"></path>
    <path d="M 103.72 105.91 L 212.44 46.11" fill="none" stroke="rgb(0, 0, 0)" stroke-width="2" stroke-miterlimit="10" stroke-dasharray="6 6"></path>
    <path d="M 19 65.35 L 129.64 6.07" fill="none" stroke="rgb(0, 0, 0)" stroke-width="2" stroke-miterlimit="10" stroke-dasharray="6 6"></path>
    <path d="M 34.6 72.5 L 145.48 12.96" fill="none" stroke="rgb(0, 0, 0)" stroke-width="2" stroke-miterlimit="10" stroke-dasharray="6 6"></path>
    <path d="M 46.36 79.52 L 155.32 18.94" fill="none" stroke="rgb(0, 0, 0)" stroke-width="2" stroke-miterlimit="10" stroke-dasharray="6 6"></path>
    <path d="M 135.4 108.51 L 16.84 51.05" fill="none" stroke="rgb(0, 0, 0)" stroke-width="2" stroke-miterlimit="10" stroke-dasharray="6 6"></path>
    <path d="M 180 89 L 62 31" fill="none" stroke="rgb(0, 0, 0)" stroke-width="2" stroke-miterlimit="10" stroke-dasharray="6 6"></path>
    <path d="M 219 69 L 101 11" fill="none" stroke="rgb(0, 0, 0)" stroke-width="2" stroke-miterlimit="10" stroke-dasharray="6 6"></path>
  </g>
</svg>
