<?xml version="1.0" encoding="UTF-8"?>
<svg xmlns="http://www.w3.org/2000/svg" xmlns:xlink="http://www.w3.org/1999/xlink" version="1.1" width="242px" height="192px" viewBox="-0.5 -0.5 242 192" style="background-color: rgb(255, 255, 255);">
  <defs></defs>
  <g>
    <path d="M 121 60 L 241 117.62 L 241 132.38 L 121 190 L 1 132.38 L 1 117.62 Z" fill="#b3ff66" stroke="rgb(0, 0, 0)" stroke-width="2" stroke-miterlimit="10"></path>
    <path d="M 1 117.62 L 121 175.24 L 241 117.62 M 121 175.24 L 121 190" fill="none" stroke="rgb(0, 0, 0)" stroke-width="2" stroke-miterlimit="10"></path>
    <path d="M 55.48 143.85 L 171.64 84.31" fill="none" stroke="rgb(0, 0, 0)" stroke-width="2" stroke-miterlimit="10"></path>
    <path d="M 56.44 159.19 L 56.44 144.37" fill="none" stroke="rgb(0, 0, 0)" stroke-width="2" stroke-miterlimit="10"></path>
    <path d="M 111.16 170.37 L 229.48 112.13" fill="none" stroke="rgb(0, 0, 0)" stroke-width="2" stroke-miterlimit="10"></path>
    <path d="M 110.68 185.06 L 111 170" fill="none" stroke="rgb(0, 0, 0)" stroke-width="2" stroke-miterlimit="10"></path>
    <path d="M 36.28 101.86 L 159.64 156.85" fill="none" stroke="rgb(0, 0, 0)" stroke-width="2" stroke-miterlimit="10"></path>
    <path d="M 81 80 L 205.24 136.31" fill="none" stroke="rgb(0, 0, 0)" stroke-width="2" stroke-miterlimit="10"></path>
    <path d="M 203.8 149.83 L 203.8 135.14" fill="none" stroke="rgb(0, 0, 0)" stroke-width="2" stroke-miterlimit="10"></path>
    <path d="M 159.4 171.02 L 159.4 156.85" fill="none" stroke="rgb(0, 0, 0)" stroke-width="2" stroke-miterlimit="10"></path>
    <path d="M 71 150 L 181.96 91.33" fill="none" stroke="rgb(0, 0, 0)" stroke-width="2" stroke-miterlimit="10"></path>
    <path d="M 86.68 156.85 L 197.32 98.09" fill="none" stroke="rgb(0, 0, 0)" stroke-width="2" stroke-miterlimit="10"></path>
    <path d="M 103.72 164.91 L 212.44 105.11" fill="none" stroke="rgb(0, 0, 0)" stroke-width="2" stroke-miterlimit="10"></path>
    <path d="M 19 124.35 L 129.64 65.07" fill="none" stroke="rgb(0, 0, 0)" stroke-width="2" stroke-miterlimit="10"></path>
    <path d="M 34.6 131.5 L 145.48 71.96" fill="none" stroke="rgb(0, 0, 0)" stroke-width="2" stroke-miterlimit="10"></path>
    <path d="M 46.36 138.52 L 155.32 77.94" fill="none" stroke="rgb(0, 0, 0)" stroke-width="2" stroke-miterlimit="10"></path>
    <path d="M 130.56 168.91 L 14.2 111.48" fill="none" stroke="rgb(0, 0, 0)" stroke-width="2" stroke-miterlimit="10"></path>
    <path d="M 180 148 L 62 90" fill="none" stroke="rgb(0, 0, 0)" stroke-width="2" stroke-miterlimit="10"></path>
    <path d="M 219 128 L 101 70" fill="none" stroke="rgb(0, 0, 0)" stroke-width="2" stroke-miterlimit="10"></path>
    <path d="M 18.76 140.6 L 19 125.91" fill="none" stroke="rgb(0, 0, 0)" stroke-width="2" stroke-miterlimit="10"></path>
    <path d="M 34.84 148.66 L 35.08 133.19" fill="none" stroke="rgb(0, 0, 0)" stroke-width="2" stroke-miterlimit="10"></path>
    <path d="M 47.08 154.12 L 47.08 140.21" fill="none" stroke="rgb(0, 0, 0)" stroke-width="2" stroke-miterlimit="10"></path>
    <path d="M 70.12 165.69 L 70.12 152.3" fill="none" stroke="rgb(0, 0, 0)" stroke-width="2" stroke-miterlimit="10"></path>
    <path d="M 87.64 173.1 L 87.16 158.8" fill="none" stroke="rgb(0, 0, 0)" stroke-width="2" stroke-miterlimit="10"></path>
    <path d="M 103 179.99 L 103.24 166.73" fill="none" stroke="rgb(0, 0, 0)" stroke-width="2" stroke-miterlimit="10"></path>
    <path d="M 178.84 161.4 L 179 150" fill="none" stroke="rgb(0, 0, 0)" stroke-width="2" stroke-miterlimit="10"></path>
    <path d="M 218.44 142.55 L 218.68 128.25" fill="none" stroke="rgb(0, 0, 0)" stroke-width="2" stroke-miterlimit="10"></path>
    <path d="M 121 0 L 131 4.8 L 131 185.2 L 121 190 L 111 185.2 L 111 4.8 Z" fill="#9999ff" stroke="rgb(0, 0, 0)" stroke-miterlimit="10"></path>
    <path d="M 111 4.8 L 121 9.6 L 131 4.8 M 121 9.6 L 121 190" fill="none" stroke="rgb(0, 0, 0)" stroke-miterlimit="10"></path>
    <path d="M 120.9 25.84 L 130.06 21.28" fill="none" stroke="rgb(0, 0, 0)" stroke-miterlimit="10" stroke-dasharray="3 3"></path>
    <path d="M 120.64 25.46 L 110.64 21.09" fill="none" stroke="rgb(0, 0, 0)" stroke-miterlimit="10" stroke-dasharray="3 3"></path>
    <path d="M 121 36 L 130 31" fill="none" stroke="rgb(0, 0, 0)" stroke-miterlimit="10" stroke-dasharray="3 3"></path>
    <path d="M 121 35 L 111 31" fill="none" stroke="rgb(0, 0, 0)" stroke-miterlimit="10" stroke-dasharray="3 3"></path>
    <path d="M 121 46 L 130 41" fill="none" stroke="rgb(0, 0, 0)" stroke-miterlimit="10" stroke-dasharray="3 3"></path>
    <path d="M 121 45 L 111 41" fill="none" stroke="rgb(0, 0, 0)" stroke-miterlimit="10" stroke-dasharray="3 3"></path>
    <path d="M 121 60 L 130 55" fill="none" stroke="rgb(0, 0, 0)" stroke-miterlimit="10" stroke-dasharray="3 3"></path>
    <path d="M 121 59 L 111 55" fill="none" stroke="rgb(0, 0, 0)" stroke-miterlimit="10" stroke-dasharray="3 3"></path>
    <path d="M 121 75 L 130 70" fill="none" stroke="rgb(0, 0, 0)" stroke-miterlimit="10" stroke-dasharray="3 3"></path>
    <path d="M 121 74 L 111 70" fill="none" stroke="rgb(0, 0, 0)" stroke-miterlimit="10" stroke-dasharray="3 3"></path>
    <path d="M 121 86 L 130 81" fill="none" stroke="rgb(0, 0, 0)" stroke-miterlimit="10" stroke-dasharray="3 3"></path>
    <path d="M 121 85 L 111 81" fill="none" stroke="rgb(0, 0, 0)" stroke-miterlimit="10" stroke-dasharray="3 3"></path>
    <path d="M 121.02 100.7 L 130.86 95.38" fill="none" stroke="rgb(0, 0, 0)" stroke-miterlimit="10" stroke-dasharray="3 3"></path>
    <path d="M 120.9 100.32 L 110.94 96.14" fill="none" stroke="rgb(0, 0, 0)" stroke-miterlimit="10" stroke-dasharray="3 3"></path>
    <path d="M 121 115 L 130 110" fill="none" stroke="rgb(0, 0, 0)" stroke-miterlimit="10" stroke-dasharray="3 3"></path>
    <path d="M 121 114 L 111 110" fill="none" stroke="rgb(0, 0, 0)" stroke-miterlimit="10" stroke-dasharray="3 3"></path>
    <path d="M 122 127.5 L 131 122.5" fill="none" stroke="rgb(0, 0, 0)" stroke-miterlimit="10" stroke-dasharray="3 3"></path>
    <path d="M 122 126.5 L 112 122.5" fill="none" stroke="rgb(0, 0, 0)" stroke-miterlimit="10" stroke-dasharray="3 3"></path>
    <path d="M 121 145 L 130 140" fill="none" stroke="rgb(0, 0, 0)" stroke-miterlimit="10" stroke-dasharray="3 3"></path>
    <path d="M 121 144 L 111 140" fill="none" stroke="rgb(0, 0, 0)" stroke-miterlimit="10" stroke-dasharray="3 3"></path>
    <path d="M 121 175 L 130 170" fill="none" stroke="rgb(0, 0, 0)" stroke-miterlimit="10" stroke-dasharray="3 3"></path>
    <path d="M 121 174 L 111 170" fill="none" stroke="rgb(0, 0, 0)" stroke-miterlimit="10" stroke-dasharray="3 3"></path>
    <path d="M 120.92 158.65 L 130.76 153.33" fill="none" stroke="rgb(0, 0, 0)" stroke-miterlimit="10" stroke-dasharray="3 3"></path>
    <path d="M 120.98 158.46 L 110.98 153.33" fill="none" stroke="rgb(0, 0, 0)" stroke-miterlimit="10" stroke-dasharray="3 3"></path>
  </g>
</svg>
